<?xml version="1.0" encoding="iso-8859-1"?>
<!-- Generator: Adobe Illustrator 19.1.1, SVG Export Plug-In . SVG Version: 6.00 Build 0)  -->
<svg version="1.1" id="Layer_1" xmlns="http://www.w3.org/2000/svg" xmlns:xlink="http://www.w3.org/1999/xlink" x="0px" y="0px"
	 viewBox="0 0 200 150" style="enable-background:new 0 0 200 150;" xml:space="preserve">
<g>
	<path style="fill:#3487C8;" d="M7.846,101.914c1.468-5.382,3.147-10.701,4.748-16.044c1.471-4.906,2.878-9.831,4.336-14.74
		c1.87-6.293,3.761-12.58,5.651-18.867c0.272-0.903,0.407-1.845,1.012-2.643c1.742-2.298,4.6-2.271,6.261,0.091
		c0.921,1.31,1.265,2.848,1.743,4.336c1.116,3.476,2.236,6.951,3.369,10.421c1.608,4.927,3.232,9.848,4.842,14.774
		c1.802,5.512,3.642,11.012,5.371,16.547c0.675,2.161,1.672,4.229,1.974,6.502c0.308,2.321-0.541,3.675-2.593,4.173
		c-1.99,0.483-4.081-0.593-4.741-2.547c-1.246-3.69-2.441-7.398-3.629-11.108c-0.425-1.326-0.72-1.487-1.852-0.689
		c-4.413,3.112-8.911,6.098-13.425,9.058c-2.486,1.631-4.989,3.237-7.5,4.83c-2.028,1.287-4.908,0.194-5.568-2.437
		C7.846,103.019,7.846,102.466,7.846,101.914z M33.008,84.233c-0.021-0.088-0.051-0.239-0.094-0.385
		c-0.718-2.41-1.441-4.818-2.157-7.228c-0.611-2.056-1.227-4.112-1.82-6.173c-0.475-1.651-0.919-3.311-1.383-4.964
		c-0.071-0.253-0.071-0.622-0.43-0.615c-0.274,0.006-0.344,0.319-0.415,0.551c-0.199,0.645-0.396,1.29-0.573,1.941
		c-1.168,4.289-2.305,8.587-3.504,12.867c-1.084,3.867-2.237,7.715-3.349,11.574c-0.08,0.279-0.314,0.631-0.035,0.862
		c0.317,0.262,0.634-0.04,0.912-0.205c1.662-0.985,3.316-1.984,4.977-2.971c2.372-1.411,4.749-2.813,7.122-4.224
		C32.629,85.042,33.004,84.81,33.008,84.233z"/>
	<path style="fill:#3487C8;" d="M150.807,107.809c-2.493-1.007-3.157-2.028-3.157-4.747c0.004-19.279,0.002-38.559-0.001-57.838
		c0-1.245-0.008-1.25-1.249-1.026c-3.346,0.604-6.693,1.209-10.038,1.823c-2.212,0.406-4.147-0.939-4.511-3.148
		c-0.375-2.279,0.971-4.192,3.187-4.573c2.565-0.441,5.111-1.031,7.691-1.338c3.471-0.413,6.894-1.098,10.348-1.598
		c3.727-0.54,7.436-1.207,11.165-1.735c1.209-0.171,2.395-0.51,3.642-0.474c1.937,0.056,4.037,2.123,4.106,4.121
		c0.06,1.746-1.617,3.395-3.633,3.657c-3.156,0.411-6.339,0.624-9.446,1.393c-0.73,0.181-1.331,0.322-2.2,0.457
		c-1.117,0.248-1.297,1.023-1.295,1.945c0.027,11.789,0.015,22.594,0.016,34.383c0,8.043,0.001,16.087,0.005,24.13
		c0.001,2.504-0.77,3.628-3.157,4.569C151.79,107.809,151.298,107.809,150.807,107.809z"/>
	<path style="fill:#3487C8;" d="M91.049,52.203c-1.119,2.232-2.157,4.309-3.201,6.384c-1.749,3.478-3.44,6.988-5.274,10.422
		c-1.287,2.411-3.058,3.047-5.251,2.182c-1.015-0.4-1.66-1.159-2.069-2.114c-1.508-3.525-2.99-7.061-4.473-10.596
		c-0.688-1.64-1.355-3.29-2.037-4.932c-0.077-0.186-0.128-0.463-0.408-0.411c-0.215,0.04-0.195,0.282-0.229,0.459
		c-0.68,3.519-1.328,7.044-1.857,10.591c-0.415,2.785-0.92,5.556-1.353,8.338c-0.621,3.992-1.451,7.947-1.987,11.956
		c-0.406,3.033-1.06,6.033-1.557,9.055c-0.482,2.931-0.9,5.872-1.358,8.807c-0.248,1.589-0.52,3.171-2.015,4.166
		c-1.478,0.984-2.974,0.936-4.393-0.04c-1.393-0.959-1.97-2.423-1.657-4.029c0.592-3.038,1.048-6.1,1.58-9.146
		c0.484-2.769,0.981-5.543,1.345-8.338c0.383-2.943,1.016-5.853,1.514-8.782c0.364-2.143,0.674-4.295,1.03-6.44
		c0.301-1.811,0.708-3.608,0.934-5.427c0.321-2.588,0.93-5.122,1.287-7.702c0.252-1.819,0.61-3.623,0.906-5.437
		c0.316-1.932,0.612-3.867,0.922-5.799c0.155-0.968,0.296-1.94,0.488-2.901c0.306-1.534,0.55-3.075,0.785-4.622
		c0.45-2.963,3.012-4.312,5.767-3.142c0.791,0.336,1.284,0.989,1.589,1.714c2.938,6.983,5.84,13.982,8.755,20.975
		c0.092,0.22,0.123,0.567,0.386,0.578c0.319,0.013,0.367-0.354,0.486-0.593c3.218-6.455,6.417-12.92,9.661-19.362
		c1.241-2.464,4.39-3.076,6.295-1.307c0.617,0.573,0.982,1.316,1.079,2.092c0.378,3.016,1.14,5.959,1.617,8.955
		c0.4,2.51,0.91,5.002,1.375,7.502c0.633,3.405,1.273,6.809,1.904,10.214c0.519,2.8,1.033,5.602,1.545,8.403
		c0.847,4.64,1.683,9.282,2.538,13.921c0.544,2.952,1.125,5.896,1.673,8.847c0.408,2.198,0.853,4.391,1.155,6.604
		c0.146,1.072-0.375,2.036-1.155,2.793c-1.299,1.261-2.953,1.127-4.422,0.692c-1.56-0.461-2.198-1.904-2.472-3.486
		c-0.526-3.048-1.11-6.086-1.663-9.13c-0.563-3.1-1.067-6.213-1.692-9.3c-0.559-2.763-0.926-5.557-1.533-8.314
		c-0.579-2.629-0.924-5.31-1.402-7.962c-0.386-2.14-0.823-4.269-1.178-6.415c-0.524-3.175-1.165-6.331-1.761-9.494
		C91.253,52.549,91.192,52.476,91.049,52.203z"/>
	<path style="fill:#3487C8;" d="M119.273,84.786c0-6.013-0.002-12.026,0.001-18.039c0.001-2.206,0.847-3.436,2.704-3.959
		c1.873-0.527,3.557,0.176,4.638,1.922c0.319,0.515,0.439,1.069,0.439,1.665c0.001,12.27,0.011,24.539-0.001,36.809
		c-0.002,2.12-1.746,3.845-3.792,3.847c-2.43,0.003-3.976-1.464-3.982-3.838c-0.013-6.136-0.004-12.271-0.004-18.407
		C119.275,84.786,119.274,84.786,119.273,84.786z"/>
	<path style="fill:#3487C8;" d="M129.799,51.128c0.065,0.839-0.739,1.88-1.828,2.77c-1.872,1.529-3.707,3.099-5.505,4.718
		c-1.747,1.574-4.101,1.411-5.624-0.388c-0.987-1.165-1.557-3.569,0.355-5.33c2.116-1.948,4.287-3.839,6.477-5.704
		c1.236-1.053,2.674-0.991,4.067-0.355C129.266,47.533,129.759,48.881,129.799,51.128z"/>
</g>
</svg>
